<svg xmlns="http://www.w3.org/2000/svg" viewBox="0 0 101.35 61.03"><title>Asset 5</title><g id="Layer_2" data-name="Layer 2"><g id="icons"><path d="M72.19,50.59,68.85,47l-3.67,3.4,5.14,5.54a2.39,2.39,0,0,1-.66.1h0L7.52,55.89a2.47,2.47,0,0,1-1.14-.29L30.74,30.13l6.39,5.14a2.46,2.46,0,0,0,1.56.55,2.48,2.48,0,0,0,1.57-.55L72.39,9.54h4.89a7.47,7.47,0,0,0-2.2-5.31A7.55,7.55,0,0,0,69.77,2L7.63,1.9h0A7.52,7.52,0,0,0,.09,9.38L0,53.38a7.51,7.51,0,0,0,7.51,7.51L69.64,61h0a7.52,7.52,0,0,0,7.52-7.48l0-11h-5ZM5,49.8,5.09,9.47,26.83,27ZM38.7,30.11,9.87,6.9,67.52,7Z"/><path d="M48.15,34.59,41.51,47.32a2.77,2.77,0,0,0,2.45,4,2.84,2.84,0,0,0,.76-.1l13.8-3.94L93.79,18.58,83.42,5.85Zm3.42,4.26,3.48,4.26L48.35,45Zm7.64,1.46-4.05-5L82.7,12.89l4.06,5Z"/><path d="M100.44,8,95.16,1.48A4,4,0,0,0,89.49.91L85.94,3.8,89.1,7.68,91.9,5.4l4,5-2.79,2.28,3.15,3.88,3.55-2.9A4,4,0,0,0,100.44,8Z"/></g></g></svg>